# xmcd
#
# Track frame offsets:
#	150
#	31432
#	53977
#	80002
#	100480
#	120955
#	141790
#	165030
#	179930
#	202625
#
# Disc length: 3090 seconds
#
# Revision: 5
# Processed by: cddbd v1.5.2PL0 Copyright (c) Steve Scherf et al.
# Submitted via: EZCDAudioConverter 8.0.2.1
#
DISCID=7f0c100a
DTITLE=Hòa Tấu. Đức Thành - Đàn Bầu 3. Giọt Mưa Thu
DYEAR=2003
DGENRE=Country
TTITLE0=Giọt Mưa Thu
TTITLE1=Đêm tàn bến Ngự
TTITLE2=Thiên thai
TTITLE3=Máy nhịp cầu tre
TTITLE4=Quê mẹ
TTITLE5=Thuyền viễn xứ
TTITLE6=Sao em nỡ vội lấy chồng
TTITLE7=Người ở đừng về
TTITLE8=Chị tôi
TTITLE9=LK Dân ca Việt Nam
EXTD=
EXTT0=
EXTT1=
EXTT2=
EXTT3=
EXTT4=
EXTT5=
EXTT6=
EXTT7=
EXTT8=
EXTT9=
PLAYORDER=
